<svg viewBox="0 0 170 60"  xmlns="http://www.w3.org/2000/svg"><g fill="#dc0012"><path d="m20.6 2.1.1 3.4s10.1-1.9 9.8 6.8l-2.3 12.8-11.8.4 3.4-25.10058437h-7.3s-4.9-.19941563-6 6.80058437l-6.3 43.8s-1.5 6.8 4.3 8.2h29.9l6.8-45.6c0 .1 3.7-18.5-20.6-11.5zm4 50.9h-8.6c-3.4-.8-2.4-6.6-2.4-6.6l2.4-14.6h12z"/><path d="m91.2 0h-41.9s-4.9 1.5-4.3 6.8h15.8l-1.9 18h-13.2s-3.9 2.8-3.4 4.9l-.1 1.9h15.1l-2.1 21.2h-13.8s-3.8 1.3-4.5 5.1v1.7h41.4s4.1-.6 5.8-4.9v-1.7l-17.3.4 3-21.4 14.3-.2s3.8-1.1 3.9-4.7v-1.7h-17.3l2.4-18.6h13.9s3.6-.9 4.1-3.4z"/><path d="m147.3.2h-42.9s-3 1.5-3.5 6h42.4s3.3-.2 4-2z"/><path d="m113 10h-12s-2.3 9.3 9.5 12.3h-8.3s-3.5 1.7-4.5 4.2v3.4h17.3l-3.3 20.6s-1.3 8.5-6.8 8.5h11.8s4.8.3 7.4-9l2.4-20.1h13.3s3.3-.1 4.3-4.6v-2.7l-16 1s16.8-2.2 19.3-10v-3.6h-12s-2 11.8-7.3 12.3l1.8-12.3h-11.5l-2 12.5c-.1 0-4.4-2.8-3.4-12.5z"/><path d="m139.1 31.5h-9l-2 15.2s-2.8 9.8 8 12.3h11.3s18.8-.5 20.6-19.8l-10.6-.2s-.5 14.5-8.3 15.8l-7.3.2s-6-.3-5.3-7.5z"/><path d="m169.4.2h-11.8s-.3 11.2-9.8 17.5c0 0 18.9 2.8 21.6-17.5z"/><path d="m169.4 18.7h-12.3s1.6 10.3-9.3 18.5c0 0 19.6 1.3 21.6-18.5z"/><path d="m109.5 31.2h-9.5s-.8 23-7.8 23.2h-6.3v4.8000769h10.5s10.8.1999231 11.8-19.8000769z"/></g></svg>

